<svg width="108" height="108" viewBox="0 0 108 108" fill="none" xmlns="http://www.w3.org/2000/svg">
<path d="M66.2084 60.3721C79.0697 60.3721 89.4959 49.9459 89.4959 37.0846C89.4959 24.2233 79.0697 13.7971 66.2084 13.7971C53.3471 13.7971 42.9209 24.2233 42.9209 37.0846C42.9209 49.9459 53.3471 60.3721 66.2084 60.3721Z" stroke="#CD60FE" stroke-width="6" stroke-linecap="round" stroke-linejoin="round"/>
<path d="M97.8752 94.2029V71.8874C97.6649 69.9006 96.7795 68.0461 95.3668 66.6333C93.9541 65.2206 92.0995 64.3352 90.1127 64.1249H41.5982L26.0732 69.9456L39.805 55.2756" stroke="#CD60FE" stroke-width="6" stroke-linecap="round" stroke-linejoin="round"/>
<path d="M33.652 93.666V79.1107L18.0708 82.9965C6.64078 85.8473 5.70028 72.696 11.4468 65.883L32.2683 41.1893M41.3898 30L29.746 33.8813L39.124 58.1003L49.2423 54.7275" stroke="#CD60FE" stroke-width="6" stroke-linecap="round" stroke-linejoin="round"/>
</svg>
