<svg width="130" height="130" viewBox="0 0 130 130" fill="none" xmlns="http://www.w3.org/2000/svg">
<path opacity="0.3" d="M66.1916 107.521C65.2166 108.496 63.4833 108.658 62.3458 107.521C61.8384 107.01 61.5537 106.318 61.5537 105.598C61.5537 104.878 61.8384 104.186 62.3458 103.675L80.7083 85.3126L73.0708 77.6751L54.7083 96.0376C53.6791 97.1209 51.9458 97.0667 50.8625 96.0376C50.3551 95.5262 50.0703 94.835 50.0703 94.1146C50.0703 93.3943 50.3551 92.7031 50.8625 92.1917L69.225 73.8292L61.5875 66.1917L43.225 84.5542C42.25 85.5292 40.5166 85.6917 39.3791 84.5542C38.8832 84.0369 38.6063 83.348 38.6063 82.6313C38.6063 81.9147 38.8832 81.2257 39.3791 80.7084L57.7416 62.3459L50.05 54.7084L31.6875 73.0709C30.7125 74.0459 28.9791 74.2084 27.8416 73.0709C27.3457 72.5536 27.0688 71.8646 27.0688 71.148C27.0688 70.4313 27.3457 69.7424 27.8416 69.2251L51.5666 45.5001L61.6958 55.5751C66.8416 60.7209 75.725 60.6667 80.8708 55.5751C86.1791 50.2667 86.1791 41.7084 80.8708 36.4001L70.7958 26.3251L72.3125 24.8084C76.5375 20.5834 83.4166 20.5834 87.6416 24.8084L110.608 47.7751C114.833 52.0001 114.833 58.8792 110.608 63.1042L66.1916 107.521Z" fill="#F4F4F4"/>
<path d="M66.6059 107.521C65.6242 108.496 63.8791 108.658 62.7338 107.521C62.2229 107.009 61.9363 106.318 61.9363 105.598C61.9363 104.878 62.2229 104.186 62.7338 103.675L81.2214 85.3125L73.5319 77.675L55.0443 96.0375C54.0081 97.1208 52.2629 97.0667 51.1722 96.0375C50.6614 95.5262 50.3747 94.835 50.3747 94.1146C50.3747 93.3942 50.6614 92.703 51.1722 92.1917L69.6599 73.8292L61.9703 66.1917L43.4827 84.5542C42.501 85.5292 40.7559 85.6917 39.6106 84.5542C39.1113 84.0368 38.8326 83.3479 38.8326 82.6313C38.8326 81.9146 39.1113 81.2257 39.6106 80.7083L58.0983 62.3459L50.3542 54.7084L31.8666 73.0708C30.8849 74.0458 29.1398 74.2083 27.9945 73.0708C27.4952 72.5535 27.2165 71.8646 27.2165 71.1479C27.2165 70.4313 27.4952 69.7424 27.9945 69.225L51.8812 45.5L62.0794 55.575C67.2603 60.7208 76.2041 60.6667 81.385 55.575C86.7296 50.2667 86.7296 41.7083 81.385 36.4L71.2414 26.325L72.7684 24.8083C77.0222 20.5833 83.9482 20.5833 88.202 24.8083L111.325 47.775C115.579 52 115.579 58.8792 111.325 63.1042L66.6059 107.521ZM119.015 70.7958C123.1 66.7262 125.395 61.2137 125.395 55.4667C125.395 49.7197 123.1 44.2071 119.015 40.1375L95.8916 17.1709C91.7942 13.113 86.2441 10.8342 80.4579 10.8342C74.6718 10.8342 69.1216 13.113 65.0243 17.1709L63.4973 18.6875L61.9703 17.1709C57.873 13.113 52.3229 10.8342 46.5367 10.8342C40.7505 10.8342 35.2004 13.113 31.1031 17.1709L11.7974 36.3458C8.10806 39.9977 5.85918 44.8423 5.45893 50.0004C5.05869 55.1585 6.5336 60.2881 9.61598 64.4583L17.5237 56.6042C16.4694 54.5597 16.0968 52.2354 16.4595 49.9668C16.8222 47.6982 17.9015 45.6029 19.5415 43.9833L38.8471 24.8083C43.1009 20.5833 50.027 20.5833 54.2808 24.8083L73.6955 44.0917C74.6771 45.0667 74.8408 46.8 73.6955 47.9375C72.5502 49.075 70.8051 48.9125 69.8235 47.9375L51.8812 30.1709L20.2505 61.5333C14.9059 66.7875 14.9059 75.4 20.2505 80.7083C22.3773 82.8208 25.1041 84.1208 27.9945 84.5C28.3764 87.4127 29.7174 90.1182 31.8085 92.1952C33.8996 94.2722 36.6236 95.604 39.5561 95.9833C39.938 98.896 41.2789 101.602 43.3701 103.679C45.4612 105.756 48.1852 107.087 51.1177 107.467C51.4994 110.392 52.8083 113.046 54.9352 115.158C57.4984 117.704 60.9341 119.113 64.588 119.113C68.2419 119.113 71.6777 117.704 74.2409 115.158L119.015 70.7958Z" fill="#F4415A"/>
</svg>
