<svg width="128" height="114" viewBox="0 0 128 114" fill="none" xmlns="http://www.w3.org/2000/svg">
<path d="M100.6 111L124.845 84.1713C124.945 84.0611 125 83.9177 125 83.7691V38.75C125 37.6454 124.105 36.75 123 36.75H108.7C107.596 36.75 106.7 37.6454 106.7 38.75V77.25" stroke="#118664" stroke-width="6" stroke-linecap="round" stroke-linejoin="round"/>
<path d="M100.6 84L106.545 77.4213C106.645 77.3111 106.7 77.1677 106.7 77.0191V74.2287C106.7 74.0105 106.581 73.8094 106.39 73.7037L95.8883 67.8931C95.0752 67.4432 94.0593 67.6127 93.4362 68.3022L79.7661 83.4289C79.4339 83.7965 79.25 84.2743 79.25 84.7698V111" stroke="#118664" stroke-width="6" stroke-linecap="round" stroke-linejoin="round"/>
<path d="M27.4 111L3.15484 84.1713C3.05518 84.0611 3 83.9177 3 83.7691V38.75C3 37.6454 3.89543 36.75 5 36.75H19.3C20.4046 36.75 21.3 37.6454 21.3 38.75V77.25" stroke="#118664" stroke-width="6" stroke-linecap="round" stroke-linejoin="round"/>
<path d="M27.3998 84L21.4546 77.4213C21.355 77.3111 21.2998 77.1677 21.2998 77.0191V74.2287C21.2998 74.0105 21.4183 73.8094 21.6093 73.7037L32.1115 67.8931C32.9246 67.4432 33.9405 67.6127 34.5636 68.3022L48.2337 83.4289C48.5659 83.7965 48.7498 84.2743 48.7498 84.7698V111" stroke="#118664" stroke-width="6" stroke-linecap="round" stroke-linejoin="round"/>
<path d="M74.1668 57H53.8334V41.25H39.6001V18.75H53.8334V3H74.1668V18.75H88.4001V41.25H74.1668V57Z" stroke="#118664" stroke-width="6" stroke-linecap="round" stroke-linejoin="round"/>
</svg>
