<svg width="240" height="301" viewBox="0 0 240 301" fill="none" xmlns="http://www.w3.org/2000/svg">
<path d="M14.01 122.834L118.323 70.8091C118.807 70.5677 119.34 70.4419 119.881 70.4417C120.422 70.4414 120.955 70.5667 121.439 70.8076L225.961 122.832C229.264 124.477 228.094 129.453 224.404 129.453H15.5691C11.8805 129.453 10.7091 124.48 14.01 122.834ZM226.312 133.314H13.6875C12.7924 133.314 11.9339 133.669 11.301 134.302C10.6681 134.935 10.3125 135.793 10.3125 136.689V164.188C10.3125 165.083 10.6681 165.942 11.301 166.575C11.9339 167.208 12.7924 167.563 13.6875 167.563H20.8594V270.416C20.8594 274.144 23.8814 277.166 27.6094 277.166H212.391C216.119 277.166 219.141 274.144 219.141 270.416V167.563H226.312C227.208 167.563 228.066 167.208 228.699 166.575C229.332 165.942 229.688 165.083 229.688 164.188V136.689C229.688 135.793 229.332 134.935 228.699 134.302C228.066 133.669 227.208 133.314 226.312 133.314Z" fill="#DADBDC"/>
<path d="M65.1531 270.416H43.8817V157.094H65.1531V270.416ZM195.906 157.094H174.634V270.416H195.906V157.094ZM229.513 124.58L121.711 70.9225C121.141 70.6388 120.513 70.4912 119.876 70.4915C119.239 70.4917 118.611 70.6397 118.042 70.9239L10.4551 124.581C6.56868 126.52 7.94821 132.376 12.2912 132.376H13.3365C13.9718 132.376 14.5985 132.228 15.1674 131.946L118.179 80.7461C118.745 80.4645 119.369 80.3173 120.002 80.3161C120.634 80.3149 121.259 80.4596 121.826 80.739L225.863 131.953C226.428 132.231 227.05 132.376 227.68 132.376C232.024 132.376 233.402 126.516 229.513 124.58Z" fill="#767777"/>
<path d="M232.641 125.272H7.35938C6.46427 125.272 5.60582 125.628 4.97289 126.261C4.33995 126.894 3.98438 127.752 3.98438 128.647V137.98C3.98438 138.875 4.33995 139.733 4.97289 140.366C5.60582 140.999 6.46427 141.355 7.35938 141.355H232.641C233.536 141.355 234.394 140.999 235.027 140.366C235.66 139.733 236.016 138.875 236.016 137.98V128.647C236.016 127.752 235.66 126.894 235.027 126.261C234.394 125.628 233.536 125.272 232.641 125.272ZM232.641 156.751H7.35938C6.46427 156.751 5.60582 157.107 4.97289 157.74C4.33995 158.373 3.98438 159.231 3.98438 160.126V169.458C3.98438 170.354 4.33995 171.212 4.97289 171.845C5.60582 172.478 6.46427 172.833 7.35938 172.833H84.023V270.416H19.6181C17.4038 270.416 15.3525 271.581 14.2177 273.483L5.67469 287.8C3.17344 291.993 6.19406 297.311 11.0752 297.311H228.925C233.806 297.311 236.827 291.993 234.325 287.8L225.782 273.483C225.225 272.548 224.434 271.774 223.487 271.236C222.54 270.699 221.47 270.416 220.382 270.416H155.765V172.833H232.641C233.536 172.833 234.394 172.478 235.027 171.845C235.66 171.212 236.016 170.354 236.016 169.458V160.126C236.016 159.231 235.66 158.373 235.027 157.74C234.394 157.107 233.536 156.751 232.641 156.751Z" fill="#999999"/>
<path d="M84.0151 270.467L155.734 270.374L155.757 287.886L84.0381 287.98L84.0151 270.467Z" fill="#C8CACB"/>
<path d="M166.3 297.311H73.4873V287.624C73.4873 286.729 73.8429 285.87 74.4758 285.237C75.1088 284.604 75.9672 284.249 76.8623 284.249H162.925C163.82 284.249 164.678 284.604 165.311 285.237C165.944 285.87 166.3 286.729 166.3 287.624V297.311Z" fill="#EBECED"/>
<path d="M145.109 270.416H94.6792V224.331C94.6792 208.847 105.968 196.295 119.894 196.295C133.82 196.295 145.109 208.847 145.109 224.331V270.416H145.109Z" fill="#2B3B47"/>
<path d="M160.5 54C160.5 76.3661 142.366 94.5 120 94.5C97.6339 94.5 79.5 76.3661 79.5 54C79.5 31.6339 97.6339 13.5 120 13.5C142.366 13.5 160.5 31.6339 160.5 54Z" fill="#E6E6E6"/>
<path d="M120.098 23.6554C120.993 23.6554 121.851 24.011 122.484 24.6439C123.117 25.2768 123.473 26.1353 123.473 27.0304V54.0135C123.473 54.9086 123.117 55.7671 122.484 56.4C121.851 57.0329 120.993 57.3885 120.098 57.3885C119.203 57.3885 118.344 57.0329 117.711 56.4C117.078 55.7671 116.723 54.9086 116.723 54.0135V27.0338C116.723 26.1387 117.078 25.2802 117.711 24.6473C118.344 24.0144 119.203 23.6588 120.098 23.6588" fill="#CA0B4A"/>
<path d="M131.759 33.6758C132.534 34.1234 133.099 34.8605 133.331 35.7251C133.563 36.5897 133.441 37.5109 132.994 38.286L122.923 55.7247C122.472 56.4935 121.736 57.0529 120.874 57.2807C120.012 57.5085 119.096 57.3862 118.324 56.9406C117.552 56.495 116.988 55.7622 116.754 54.9021C116.521 54.042 116.637 53.1244 117.077 52.3497L127.148 34.911C127.596 34.1359 128.333 33.5703 129.198 33.3386C130.062 33.107 130.983 33.2283 131.759 33.6758Z" fill="black"/>
<path d="M120 91.125C140.503 91.125 157.125 74.5031 157.125 54C157.125 33.4969 140.503 16.875 120 16.875C99.4969 16.875 82.875 33.4969 82.875 54C82.875 74.5031 99.4969 91.125 120 91.125ZM120 101.25C93.9045 101.25 72.75 80.0955 72.75 54C72.75 27.9045 93.9045 6.75 120 6.75C146.095 6.75 167.25 27.9045 167.25 54C167.25 80.0955 146.095 101.25 120 101.25Z" fill="#636363"/>
<path d="M126.817 54.0371C126.817 55.8175 126.11 57.5249 124.851 58.7838C123.592 60.0427 121.885 60.75 120.104 60.75C118.324 60.75 116.617 60.0427 115.358 58.7838C114.099 57.5249 113.392 55.8175 113.392 54.0371C113.392 52.2567 114.099 50.5493 115.358 49.2904C116.617 48.0315 118.324 47.3242 120.104 47.3242C121.885 47.3242 123.592 48.0315 124.851 49.2904C126.11 50.5493 126.817 52.2567 126.817 54.0371Z" fill="#9B9B9B"/>
</svg>
