<svg width="17" height="16" viewBox="0 0 17 16" fill="none" xmlns="http://www.w3.org/2000/svg">
<path d="M6.48877 6.66667C6.48877 6.09203 6.71516 5.54093 7.11815 5.1346C7.52113 4.72827 8.0677 4.5 8.6376 4.5C9.20751 4.5 9.75407 4.72827 10.1571 5.1346C10.56 5.54093 10.7864 6.09203 10.7864 6.66667C10.7864 7.2413 10.56 7.7924 10.1571 8.19873C9.75407 8.60506 9.20751 8.83333 8.6376 8.83333C8.0677 8.83333 7.52113 8.60506 7.11815 8.19873C6.71516 7.7924 6.48877 7.2413 6.48877 6.66667Z" fill="#0C0B1F"/>
<path fill-rule="evenodd" clip-rule="evenodd" d="M3.19913 5.918C3.30881 4.57772 3.91429 3.32802 4.89537 2.41697C5.87646 1.50592 7.16142 1.00013 8.49518 1H8.78081C10.1146 1.00013 11.3995 1.50592 12.3806 2.41697C13.3617 3.32802 13.9672 4.57772 14.0769 5.918C14.1994 7.41433 13.7412 8.9002 12.7988 10.0627L9.62977 13.9707C9.50965 14.1189 9.35836 14.2384 9.18683 14.3204C9.01531 14.4024 8.82784 14.445 8.638 14.445C8.44815 14.445 8.26069 14.4024 8.08916 14.3204C7.91764 14.2384 7.76634 14.1189 7.64623 13.9707L4.47785 10.0627C3.53521 8.9003 3.07678 7.41441 3.19913 5.918ZM8.638 3.5C7.80506 3.5 7.00623 3.83363 6.41725 4.4275C5.82828 5.02136 5.49739 5.82681 5.49739 6.66667C5.49739 7.50652 5.82828 8.31197 6.41725 8.90584C7.00623 9.4997 7.80506 9.83333 8.638 9.83333C9.47094 9.83333 10.2698 9.4997 10.8587 8.90584C11.4477 8.31197 11.7786 7.50652 11.7786 6.66667C11.7786 5.82681 11.4477 5.02136 10.8587 4.4275C10.2698 3.83363 9.47094 3.5 8.638 3.5Z" fill="#0C0B1F"/>
</svg>
