<svg width="24" height="24" viewBox="0 0 24 24" fill="none" xmlns="http://www.w3.org/2000/svg">
<path d="M1.5 5.25V18.75H22.5V5.25H1.5ZM3 6.75H21V17.25H3V6.75ZM4.5 8.25V9.75H12V8.25H4.5ZM16.5 8.25V9.04725C15.6562 9.1875 15 9.90225 15 10.7812C15 11.3467 15.3135 11.865 15.8205 12.117L18 13.2188C18.0019 13.2562 17.996 13.2936 17.9825 13.3286C17.9691 13.3636 17.9485 13.3954 17.9219 13.4219C17.8954 13.4485 17.8636 13.4691 17.8286 13.4825C17.7936 13.496 17.7562 13.5019 17.7188 13.5H16.7812C16.7438 13.5019 16.7064 13.496 16.6714 13.4825C16.6364 13.4691 16.6046 13.4485 16.5781 13.4219C16.5515 13.3954 16.5309 13.3636 16.5175 13.3286C16.504 13.2936 16.4981 13.2562 16.5 13.2188V12.75H15V13.2188C15 14.0977 15.6562 14.8125 16.5 14.9535V15.75H18V14.9528C18.8438 14.8125 19.5 14.0977 19.5 13.2188C19.5 12.6533 19.1865 12.138 18.6795 11.883L16.5 10.7812C16.5 10.614 16.614 10.5 16.7812 10.5H17.7188C17.886 10.5 18 10.614 18 10.7812V11.25H19.5V10.7812C19.5 9.90225 18.8438 9.1875 18 9.0465V8.25H16.5ZM4.5 10.5V12H9.75V10.5H4.5ZM6.375 12.75C5.92125 12.75 5.60175 13.008 5.39025 13.242C5.18025 13.4768 5.02425 13.737 4.89825 14.016C4.64625 14.5747 4.5 15.1785 4.5 15.75H6C6 15.51 6.117 14.988 6.28125 14.625C6.3285 14.52 6.375 14.484 6.42225 14.4142C6.47775 14.49 6.51825 14.5402 6.58575 14.6483C6.6945 14.8245 6.8145 15.0352 6.96075 15.2347C7.10775 15.4335 7.28625 15.762 7.85175 15.7733C8.29725 15.7823 8.4345 15.621 8.5785 15.516C8.721 15.4102 8.8215 15.3105 8.9295 15.2108C9.003 15.1433 9.0615 15.0938 9.117 15.0472C9.138 15.0765 9.21975 15.126 9.633 15.3045C10.134 15.5243 10.893 15.75 12 15.75V14.25C11.0775 14.25 10.5968 14.1 10.242 13.9455C9.888 13.7902 9.618 13.5 9 13.5C8.5485 13.5 8.4345 13.6755 8.2965 13.7812C8.1735 13.875 8.08875 13.9747 7.992 14.0625C7.9485 13.992 7.9275 13.9575 7.875 13.875C7.7372 13.6378 7.57207 13.4175 7.383 13.2188C7.1655 12.999 6.8235 12.75 6.375 12.75Z" fill="#CD60FE"/>
</svg>
