<svg width="17" height="16" viewBox="0 0 17 16" fill="none" xmlns="http://www.w3.org/2000/svg">
<g clip-path="url(#clip0_162_881)">
<path d="M12.2742 11.2134L13.8874 12.1534L13.3916 13.0201L11.2824 11.7934V9.33341H12.2742V11.2134ZM16.5718 11.3334C16.5718 13.9134 14.5023 16.0001 11.9436 16.0001C9.38481 16.0001 7.31532 13.9134 7.31532 11.3334C7.31532 11.1067 7.33515 10.8867 7.36821 10.6667H2.02588V2.66675H13.9271V7.12008C15.4875 7.87341 16.5718 9.47341 16.5718 11.3334ZM7.76492 9.33341C7.88393 9.09341 8.00956 8.86675 8.16163 8.64675C8.10212 8.66675 8.04261 8.66675 7.9765 8.66675C6.87894 8.66675 5.99296 7.77341 5.99296 6.66675C5.99296 5.56008 6.87894 4.66675 7.9765 4.66675C9.07405 4.66675 9.96004 5.56008 9.96004 6.66675C9.96004 6.83341 9.93359 7.00008 9.89392 7.15341C10.5154 6.84675 11.2097 6.66675 11.9436 6.66675C12.1684 6.66675 12.3866 6.68675 12.6048 6.72008V5.33341C12.254 5.33341 11.9177 5.19294 11.6697 4.94289C11.4217 4.69284 11.2824 4.3537 11.2824 4.00008H4.6706C4.6706 4.74008 4.08215 5.33341 3.34824 5.33341V8.00008C3.69895 8.00008 4.0353 8.14056 4.28329 8.39061C4.53128 8.64065 4.6706 8.97979 4.6706 9.33341H7.76492ZM15.2495 11.3334C15.2495 9.49341 13.7684 8.00008 11.9436 8.00008C10.1187 8.00008 8.63768 9.49341 8.63768 11.3334C8.63768 13.1734 10.1187 14.6667 11.9436 14.6667C13.7684 14.6667 15.2495 13.1734 15.2495 11.3334Z" fill="#FF820E"/>
</g>
<defs>
<clipPath id="clip0_162_881">
<rect width="15.8683" height="16" fill="white" transform="translate(0.703613)"/>
</clipPath>
</defs>
</svg>
