<svg width="17" height="16" viewBox="0 0 17 16" fill="none" xmlns="http://www.w3.org/2000/svg">
<g clip-path="url(#clip0_162_893)">
<path d="M15.7461 0.666548C15.7461 0.666548 11.4299 0.361214 9.79548 1.99988C9.78028 2.02455 7.15077 4.66655 7.15077 4.66655L3.84487 5.33321L1.86133 6.66655L7.15077 9.33321L9.79548 14.6665L11.1178 12.6665L11.779 9.33321C11.779 9.33321 14.3993 6.68188 14.4237 6.66655C16.0489 5.01855 15.7461 0.666548 15.7461 0.666548ZM11.779 5.33321C11.6037 5.33321 11.4355 5.26298 11.3115 5.13795C11.1875 5.01293 11.1178 4.84336 11.1178 4.66655C11.1178 4.48974 11.1875 4.32017 11.3115 4.19514C11.4355 4.07012 11.6037 3.99988 11.779 3.99988C11.9544 3.99988 12.1226 4.07012 12.2465 4.19514C12.3705 4.32017 12.4402 4.48974 12.4402 4.66655C12.4402 4.84336 12.3705 5.01293 12.2465 5.13795C12.1226 5.26298 11.9544 5.33321 11.779 5.33321ZM5.16723 11.3332C4.50605 10.6665 3.18369 10.6665 2.52251 11.3332C1.86133 11.9999 1.86133 14.6665 1.86133 14.6665C1.86133 14.6665 4.50605 14.6665 5.16723 13.9999C5.82841 13.3332 5.82841 11.9999 5.16723 11.3332Z" stroke="#FF820E" stroke-width="1.33333"/>
</g>
<defs>
<clipPath id="clip0_162_893">
<rect width="15.8683" height="16" fill="white" transform="translate(0.539062)"/>
</clipPath>
</defs>
</svg>
