<svg width="98" height="116" viewBox="0 0 98 116" fill="none" xmlns="http://www.w3.org/2000/svg">
<path d="M90.4 58V23.1485C90.4 22.9894 90.3368 22.8368 90.2243 22.7243L71.6757 4.17574C71.5632 4.06321 71.4106 4 71.2515 4H4.6C4.26863 4 4 4.26863 4 4.6V111.4C4 111.731 4.26863 112 4.6 112H41.8" stroke="#29BD6A" stroke-width="8" stroke-linecap="round" stroke-linejoin="round"/>
<path d="M25.6001 47.2001H47.2001H68.8001M25.6001 25.6001H47.2001M25.6001 68.8001H41.8001" stroke="#29BD6A" stroke-width="8" stroke-linecap="round" stroke-linejoin="round"/>
<path d="M68.7998 25V4.6C68.7998 4.26863 69.0684 4 69.3998 4H71.2513C71.4104 4 71.563 4.06321 71.6755 4.17574L90.2241 22.7243C90.3366 22.8368 90.3998 22.9894 90.3998 23.1485V25C90.3998 25.3314 90.1312 25.6 89.7998 25.6H69.3998C69.0684 25.6 68.7998 25.3314 68.7998 25Z" fill="#29BD6A" stroke="#29BD6A" stroke-width="2" stroke-linecap="round" stroke-linejoin="round"/>
<path d="M70.4501 85.6115L75.3594 75.2022C75.9897 73.8659 77.8103 73.8659 78.4406 75.2022L83.3499 85.6115L94.3286 87.291C95.7372 87.5065 96.2986 89.3187 95.2788 90.3583L87.3361 98.4551L89.2106 109.894C89.4513 111.363 87.978 112.483 86.7177 111.789L76.9 106.386L67.0823 111.789C65.822 112.483 64.3487 111.363 64.5894 109.894L66.4639 98.4551L58.5212 90.3583C57.5014 89.3187 58.0628 87.5065 59.4714 87.291L70.4501 85.6115Z" stroke="#29BD6A" stroke-width="4" stroke-linecap="round" stroke-linejoin="round"/>
</svg>
