<svg width="108" height="108" viewBox="0 0 108 108" fill="none" xmlns="http://www.w3.org/2000/svg">
<path d="M25.2491 4.80933C20.3216 5.46323 15.8455 11.2429 15.8455 18.7312C15.8455 22.8445 17.2757 26.4937 19.3661 29.025L21.853 32.0203L18.0139 32.7374C15.3013 33.2648 13.3079 34.6992 11.6036 37.0406C9.89707 39.382 8.59348 42.6304 7.68012 46.4062C6.02637 53.1984 5.65934 61.5093 5.60449 68.85H14.6453L17.128 102.136C23.435 103.57 30.1639 103.507 36.2389 102.136L38.4327 68.85H47.0389C47.0389 61.425 46.9335 53.0085 45.4358 46.132C44.6132 42.3562 43.3686 39.1078 41.6389 36.7874C39.9093 34.4671 37.821 33.0539 34.7624 32.5687L30.8389 31.957L33.328 28.8562C35.3319 26.346 36.6819 22.739 36.6819 18.7312C36.6819 10.7367 31.6827 4.83042 26.2616 4.83042L25.2491 4.80933ZM55.1389 11.2682V15.0651H102.389V11.2682H55.1389ZM58.5139 19.4948C58.5139 29.6156 68.6389 53.2406 78.7639 53.2406C88.8889 53.2406 99.0139 29.6156 99.0139 19.4948H58.5139ZM78.7639 57.4593C68.6389 57.4593 58.5139 81.0843 58.5139 91.2093H99.0139C99.0139 81.0843 88.8889 57.4593 78.7639 57.4593ZM55.1389 95.639V99.4359H102.389V95.639H55.1389Z" fill="#FFC00E"/>
</svg>
