<svg width="108" height="108" viewBox="0 0 108 108" fill="none" xmlns="http://www.w3.org/2000/svg">
<path d="M49.5 36H58.5V63H49.5V36ZM67.5 4.5H40.5V13.5H67.5V4.5ZM54 90C36.585 90 22.5 75.915 22.5 58.5C22.5 41.085 36.585 27 54 27C71.415 27 85.5 41.085 85.5 58.5C88.65 58.5 91.62 59.085 94.5 60.075V58.5C94.5 48.96 91.17 40.185 85.635 33.255L92.025 26.865C90 24.57 87.975 22.5 85.68 20.52L79.29 27C72.315 21.33 63.54 18 54 18C43.2587 18 32.9574 22.267 25.3622 29.8622C17.767 37.4574 13.5 47.7587 13.5 58.5C13.5 69.2413 17.767 79.5426 25.3622 87.1378C32.9574 94.733 43.2587 99 54 99C56.655 99 59.22 98.73 61.695 98.235C60.3 95.625 59.31 92.7 58.86 89.595C57.24 89.82 55.665 90 54 90ZM90 81V67.5H81V81H67.5V90H81V103.5H90V90H103.5V81H90Z" fill="#FFC00E"/>
</svg>
